<svg xmlns="http://www.w3.org/2000/svg" viewBox="20 44 70 80">
<path fill="#825368" d="M43.5,47.5C42.9543,49.2361 42.9543,51.2361 43.5,53.5C47.4454,54.4909 51.4454,54.8242 55.5,54.5C58.0593,54.1984 60.3926,54.5318 62.5,55.5C53.8333,55.5 45.1667,55.5 36.5,55.5C34.9121,53.8867 33.9121,51.8867 33.5,49.5C33.9175,48.7784 34.5842,48.2784 35.5,48C38.146,47.5026 40.8127,47.3359 43.5,47.5Z"/>
<path fill="#a22f41" d="M53.5,47.5C57.3714,47.185 61.0381,47.5184 64.5,48.5C63.448,48.3505 62.448,48.5172 61.5,49C62.0283,52.038 63.3616,54.538 65.5,56.5C64.609,55.8902 63.609,55.5569 62.5,55.5C60.3926,54.5318 58.0593,54.1984 55.5,54.5C56.2666,51.9133 55.6,49.5799 53.5,47.5Z"/>
<path fill="#91384f" d="M43.5,47.5C46.8333,47.5 50.1667,47.5 53.5,47.5C55.6,49.5799 56.2666,51.9133 55.5,54.5C51.4454,54.8242 47.4454,54.4909 43.5,53.5C42.9543,51.2361 42.9543,49.2361 43.5,47.5Z"/>
<path fill="#b82838" d="M64.5,48.5C68.634,48.9932 71.634,50.9932 73.5,54.5C73.0766,55.2646 72.7432,56.0979 72.5,57C75.1597,59.7985 75.8263,62.9651 74.5,66.5C75.4544,68.9106 76.7877,71.0772 78.5,73C78.4301,73.7648 78.0967,74.2648 77.5,74.5C73.983,68.119 69.983,62.119 65.5,56.5C63.3616,54.538 62.0283,52.038 61.5,49C62.448,48.5172 63.448,48.3505 64.5,48.5Z"/>
<path fill="#fcfbfb" d="M36.5,55.5C45.1667,55.5 53.8333,55.5 62.5,55.5C63.609,55.5569 64.609,55.8902 65.5,56.5C69.983,62.119 73.983,68.119 77.5,74.5C79.6315,77.4461 80.6315,80.7794 80.5,84.5C76.5971,91.3032 72.9304,98.3032 69.5,105.5C67.3477,107.985 64.6811,109.651 61.5,110.5C58.5,110.5 55.5,110.5 52.5,110.5C47.5,110.5 42.5,110.5 37.5,110.5C35.563,109.069 33.7297,107.402 32,105.5C28.6667,99.5 25.3333,93.5 22,87.5C21.3333,84.5 21.3333,81.5 22,78.5C23.5133,75.4734 25.0133,72.4734 26.5,69.5C29.1442,66.2266 31.3109,62.5599 33,58.5C34.5185,57.8366 35.6851,56.8366 36.5,55.5Z"/>
<path fill="#9f3446" d="M64.5,74.5C65.764,76.2701 67.264,77.9368 69,79.5C69.6667,81.8333 69.6667,84.1667 69,86.5C68.6174,87.056 68.1174,87.3893 67.5,87.5C65.8333,87.5 64.1667,87.5 62.5,87.5C62.7261,84.7508 62.3928,82.0841 61.5,79.5C62.2745,77.6036 63.2745,75.937 64.5,74.5Z"/>
<path fill="#5e5873" d="M33.5,49.5C33.9121,51.8867 34.9121,53.8867 36.5,55.5C35.6851,56.8366 34.5185,57.8366 33,58.5C31.3109,62.5599 29.1442,66.2266 26.5,69.5C25.5868,67.9139 25.5868,66.4139 26.5,65C25.5291,63.5187 24.1958,62.6854 22.5,62.5C23.5472,58.7393 25.3805,55.406 28,52.5C29.7409,51.2423 31.5742,50.2423 33.5,49.5Z"/>
<path fill="#43688b" d="M22.5,62.5C24.1958,62.6854 25.5291,63.5187 26.5,65C25.5868,66.4139 25.5868,67.9139 26.5,69.5C25.0133,72.4734 23.5133,75.4734 22,78.5C21.3333,81.5 21.3333,84.5 22,87.5C25.3333,93.5 28.6667,99.5 32,105.5C33.7297,107.402 35.563,109.069 37.5,110.5C36.5655,111.568 36.2322,112.901 36.5,114.5C38.4286,114.231 40.0953,114.731 41.5,116C39.2922,116.191 37.2922,116.691 35.5,117.5C31.6681,116.182 28.5014,113.848 26,110.5C21.7299,102.959 17.7299,95.2927 14,87.5C13.2093,83.0745 13.5427,78.7411 15,74.5C17.2874,70.2347 19.7874,66.2347 22.5,62.5Z"/>
<path fill="#8d3d52" d="M64.5,74.5C63.2745,75.937 62.2745,77.6036 61.5,79.5C62.3928,82.0841 62.7261,84.7508 62.5,87.5C64.1667,87.5 65.8333,87.5 67.5,87.5C64.194,91.9165 60.5273,96.0831 56.5,100C53.4473,101.072 51.4473,100.072 50.5,97C53.7714,92.0574 57.4381,87.3907 61.5,83C58,78.8333 54.5,74.6667 51,70.5C50.8355,66.0233 53.0022,64.5233 57.5,66C59.6677,68.9981 62.0011,71.8314 64.5,74.5Z"/>
<path fill="#a63242" d="M80.5,84.5C80.6582,87.5455 79.9915,90.3788 78.5,93C79.448,93.4828 80.448,93.6495 81.5,93.5C81.2627,94.791 81.596,95.791 82.5,96.5C79.6532,102.206 76.3198,107.539 72.5,112.5C71.5,112.5 70.5,112.5 69.5,112.5C69.5,110.167 69.5,107.833 69.5,105.5C72.9304,98.3032 76.5971,91.3032 80.5,84.5Z"/>
<path fill="#8e3c54" d="M69.5,105.5C69.5,107.833 69.5,110.167 69.5,112.5C70.5,112.5 71.5,112.5 72.5,112.5C70.5156,115.164 67.8489,116.831 64.5,117.5C63.8333,117.5 63.1667,117.5 62.5,117.5C62.2167,114.835 61.8834,112.501 61.5,110.5C64.6811,109.651 67.3477,107.985 69.5,105.5Z"/>
<path fill="#625b78" d="M37.5,110.5C42.5,110.5 47.5,110.5 52.5,110.5C51.3915,111.29 50.0581,111.79 48.5,112C49.1667,113.667 49.8333,115.333 50.5,117C54.4862,117.499 58.4862,117.666 62.5,117.5C63.1667,117.5 63.8333,117.5 64.5,117.5C54.9316,118.817 45.2649,118.817 35.5,117.5C37.2922,116.691 39.2922,116.191 41.5,116C40.0953,114.731 38.4286,114.231 36.5,114.5C36.2322,112.901 36.5655,111.568 37.5,110.5Z"/>
<path fill="#754863" d="M52.5,110.5C55.5,110.5 58.5,110.5 61.5,110.5C61.8834,112.501 62.2167,114.835 62.5,117.5C58.4862,117.666 54.4862,117.499 50.5,117C49.8333,115.333 49.1667,113.667 48.5,112C50.0581,111.79 51.3915,111.29 52.5,110.5Z"/>
</svg>
